<?xml version="1.0" encoding="utf-8"?>
<!-- Generator: Adobe Illustrator 16.0.0, SVG Export Plug-In . SVG Version: 6.00 Build 0)  -->
<!DOCTYPE svg PUBLIC "-//W3C//DTD SVG 1.1//EN" "http://www.w3.org/Graphics/SVG/1.1/DTD/svg11.dtd">
<svg version="1.1" id="Ebene_1" xmlns="http://www.w3.org/2000/svg" xmlns:xlink="http://www.w3.org/1999/xlink" x="0px" y="0px"
	 width="1031.351px" height="408px" viewBox="0 0 1031.351 408" enable-background="new 0 0 1031.351 408" xml:space="preserve">
<path fill-rule="evenodd" clip-rule="evenodd" fill="#FFFFFF" d="M155.306,133.069c25.147,0.439,46.239,6.958,64.422,21.875
	c4.962,4.071,5.243,4.698,1.724,10.248c-4.777,7.533-9.822,14.896-14.685,22.375c-1.435,2.206-2.554,2.393-4.662,0.519
	c-16.717-14.858-36.631-19.711-57.863-14.771c-15.924,3.705-28.092,14.248-34.186,29.981c-6.926,17.882-6.024,35.748,3.597,52.474
	c5.263,9.149,13.085,16.035,22.893,20.608c8.265,3.854,16.922,6.696,25.848,5.566c16.102-2.037,31.234-7.189,43.895-18.03
	c5.465-4.679,5.647-4.665,9.149,1.657c3.999,7.221,7.768,14.568,11.633,21.863c1.376,2.597,0.035,4.419-1.745,6.131
	c-8.707,8.373-18.836,14.575-30.055,18.845c-11.365,4.324-23.136,6.09-35.413,6.765c-17.22,0.945-33.239-2.129-48.536-9.467
	c-12.082-5.796-21.922-14.475-30.334-24.933c-11.581-14.396-17.485-30.916-18.949-49.104c-2.899-36.02,9.752-65.057,39.429-86.192
	c12.668-9.022,27-13.58,42.355-15.342C148.279,133.626,152.693,132.832,155.306,133.069z"/>
<path fill-rule="evenodd" clip-rule="evenodd" fill="#FFFFFF" d="M912.707,213.083c0.002,10.665-0.336,21.344,0.08,31.992
	c0.65,16.64,8.756,28.241,25.289,31.637c4.33,0.889,8.953,0.462,13.441,0.431c2.924-0.021,4.229,1.052,4.201,4.09
	c-0.09,10.164-0.059,20.33-0.014,30.495c0.012,2.524-0.672,3.849-3.582,4.186c-19.598,2.271-38.404-0.104-55.67-10.039
	c-14.271-8.211-22.957-20.909-25.35-37.123c-4.197-28.452-1.402-57.154-2.078-85.739c-0.168-7.133-0.031-7.136-7.049-7.146
	c-14.975-0.02-14.976-0.02-14.974-14.779c0-5.499,0.109-11.001-0.024-16.496c-0.078-3.168,1.097-4.553,4.355-4.45
	c4.661,0.147,9.348-0.22,13.993,0.094c4.301,0.29,5.863-1.063,5.77-5.576c-0.27-13.159,0.045-26.329-0.172-39.49
	c-0.072-4.392,1.047-6.258,5.834-6.102c9.988,0.328,19.998,0.266,29.99,0.027c4.648-0.111,6.092,1.728,6.023,6.195
	c-0.195,12.828,0.051,25.663-0.127,38.492c-0.064,4.628,1.369,6.636,6.334,6.473c9.488-0.313,18.996,0.032,28.492-0.145
	c3.768-0.07,5.422,1.02,5.301,5.079c-0.244,8.158-0.215,16.332-0.01,24.493c0.096,3.837-1.133,5.347-5.133,5.251
	c-9.326-0.225-18.662-0.078-27.994-0.063c-6.471,0.011-6.9,0.403-6.92,6.718C912.684,192.087,912.707,202.585,912.707,213.083z"/>
<path fill-rule="evenodd" clip-rule="evenodd" fill="#FFFFFF" d="M625.929,217.817c-1.136-15.617-4.077-30.494-11.15-44.454
	c-7.639-15.078-18.84-27.025-34.438-33.476c-15.277-6.317-31.26-8.974-48.08-4.965c-12.442,2.965-22.561,9.06-31.46,17.815
	c-1.696,1.669-3.029,5.369-5.136,4.545c-2.329-0.911,0.135-4.076,0.122-6.299c-0.146-25.827-0.149-51.656-0.037-77.484
	c0.019-4.278-1.891-5.438-5.79-5.379c-9.663,0.147-19.329,0.038-28.994,0.045c-7.95,0.007-7.963,0.016-7.963,8.111
	c-0.003,76.819-0.002,153.639-0.001,230.458c0,1,0.065,2.004,0,2.999c-0.231,3.543,1.26,5.19,4.946,5.153
	c10.33-0.104,20.663-0.089,30.993-0.013c3.405,0.024,4.831-1.465,4.77-4.825c-0.097-5.276-0.025-10.555-0.025-15.791
	c1.731-0.169,2.221,0.818,2.781,1.564c10.273,13.683,24.629,20.623,40.973,22.764c13.238,1.733,26.37-0.467,38.924-5.729
	c20.304-8.51,33.949-23.657,41.995-43.499C624.99,253.007,627.232,235.725,625.929,217.817z M569.828,267.395
	c-13.741,17.104-35.513,19.503-53.641,8.171c-8.542-5.34-14.426-13.86-17.501-23.769c-2.497-8.046-5.106-16.119-3.849-24.057
	c-0.9-12.931,1.671-24.634,7.646-35.084c7.082-12.383,17.601-20.072,32.753-20.938c15.144-0.865,27.265,3.965,36.288,16.09
	c5.74,7.715,8.41,16.696,10.083,26.088C585.084,233.407,582.367,251.79,569.828,267.395z"/>
<path fill-rule="evenodd" clip-rule="evenodd" fill="#FFFFFF" d="M831.607,190.132c-6.08-14.329-14.991-26.588-27.321-35.85
	c-26.116-19.617-55.722-24.363-87.101-17.454c-21.748,4.788-39.597,16.552-53.339,34.262c-8.921,11.497-14.24,24.699-16.643,38.824
	c-2.258,13.277-1.742,26.569,1.569,39.936c3.858,15.577,10.977,29.335,22.025,40.411c19.441,19.488,43.363,29.267,73.265,28.668
	c17.59,0.925,35.854-4.069,52.303-14.494c27.361-17.34,41.198-42.786,42.273-75.055
	C839.088,215.872,836.955,202.734,831.607,190.132z M764.201,276.822c-15.984,7.354-31.67,6.96-46.559-1.419
	c-13.848-7.793-23.126-19.548-26.233-35.946c-3.941-20.801,0.554-38.797,15.762-53.625c11.653-11.364,26.009-15.384,42.049-13.817
	c0.416,0.041,0.794,0.475,1.819,1.124c-22.227,5.56-31.337,22.746-28.813,40.253c1.966,13.634,12.657,26.682,31.423,29.371
	c16.696,2.392,29.648-7.739,38.463-30.412c3.237,2.869,2.29,7.005,2.633,10.316C797.035,244.798,785.778,266.894,764.201,276.822z"
	/>
<path fill="#FFFFFF" d="M426.133,199.49c-4.186-14.875-11.912-27.438-22.374-38.105c-12.008-12.244-27.043-20.219-43.762-24.175
	c-19.604-4.639-39.132-4.454-58.638,1.807c-24.48,7.857-42.888,22.725-54.345,45.613c-9.881,19.741-12.444,40.56-7.509,62.36
	c4.967,21.943,16.045,39.688,34.204,52.922c18.102,13.191,38.368,19.642,60.049,19.032c7.861-0.386,14.837-0.411,21.986-1.761
	c18.757-3.54,34.576-12.174,48-25.207c12.39-12.029,20.598-26.797,23.914-43.802C430.828,231.927,430.717,215.782,426.133,199.49z
	 M372.288,264.712c-7.812,8.241-17.011,13.426-28.473,15.783c-19.18,3.945-34.747-2.062-47.666-15.442
	c-12.379-12.821-15.731-28.667-13.816-46.314c1.708-15.743,9.018-27.74,21.087-37.206c10.914-8.561,23.651-10.699,37.136-9.553
	c1.228,0.104,2.546,0.386,3.377,1.646c-20.013,3.466-31.21,17.781-29.723,39.864c0.859,12.747,12.796,26.354,27.485,28.165
	c21.98,2.71,36.433-7.831,41.571-30.901c2.852,2.358,2.141,5.786,2.43,8.348C387.616,236.095,384.511,251.818,372.288,264.712z"/>
</svg>
